<?xml version="1.0" encoding="UTF-8"?>
<svg id="Layer_1" xmlns="http://www.w3.org/2000/svg" version="1.1" viewBox="0 0 707.25 707.24">
  <!-- Generator: Adobe Illustrator 30.6.0, SVG Export Plug-In . SVG Version: 2.1.4 Build 109)  -->
  <defs>
    <style>
      .st0 {
        fill: #fff;
      }

      .st1 {
        fill: #c73830;
      }
    </style>
  </defs>
  <path class="st0" d="M689.71,357.79c.9-76.18-24-151.95-72.93-213.39h-.02l-123.63,24.15-49.33,54.62,55.45,170.53,96.11,14.39,94.36-50.3Z"/>
  <path class="st1" d="M689.71,357.79l-94.36,50.3,52.47,108.15c27.52-49.63,41.28-104.12,41.88-158.45Z"/>
  <path class="st0" d="M647.82,516.23l-52.47-108.15-96.11-14.39-146.83,105.35v72.73l.72.6,117.49,95.56.27.72c56.92-21.1,108.79-57.92,148.66-109.47,10.66-13.79,20.08-28.15,28.27-42.96Z"/>
  <path class="st1" d="M616.75,144.4h.02c-16.48-20.73-35.72-39.81-57.59-56.72-25.65-19.83-53.27-35.37-82-46.7l15.93,127.58,123.63-24.15ZM499.24,393.7l-55.45-170.53h-179.23l-55.45,170.53,143.29,105.35,146.83-105.35Z"/>
  <path class="st0" d="M443.8,223.17l49.33-54.62-15.93-127.58c-76.78-30.42-161.42-30.92-237.4-3.65l-16.41,131.22,41.19,54.62h179.23Z"/>
  <path class="st1" d="M470.89,668.66l-.27-.72-117.49-95.56-.72-.6-118.16,96.16c76.83,29.2,161.17,28.75,236.65.72Z"/>
  <path class="st0" d="M352.41,571.78v-72.73l-143.29-105.35-87.96,14.39-53.15,109.57-6.32,2.77c21.33,37.34,50.23,71.18,86.37,99.13,26.9,20.8,55.97,36.89,86.19,48.38l118.16-96.16h0Z"/>
  <path class="st0" d="M209.12,393.7l55.45-170.53-41.19-54.62-131.57-25.7c-1.4,1.72-2.77,3.47-4.15,5.24-47.18,61.02-70.06,133.15-70.18,204.73h.02l103.65,55.27,87.96-14.39h0Z"/>
  <path class="st1" d="M223.38,168.55l16.41-131.22c-56.32,20.21-107.9,55.67-147.98,105.52l131.57,25.7h0ZM17.48,352.82c-.1,58.29,14.91,116.26,44.21,167.61l6.32-2.77,53.15-109.57-103.65-55.27h-.02Z"/>
  <path d="M353.38,707.24h-.01c-43.08,0-85.24-7.73-125.33-22.96-32.46-12.34-62.97-29.46-90.68-50.89-37.18-28.75-67.75-63.84-90.85-104.29C15.98,475.58-.11,414.62,0,352.79c.14-78.62,25.67-153.1,73.84-215.39,1.46-1.89,2.92-3.74,4.4-5.56,40.67-50.62,94.54-89.02,155.66-110.97C272.37,7.04,312.96-.02,353.85,0,398.57,0,442.24,8.31,483.63,24.72c30.78,12.15,59.81,28.68,86.25,49.13,22.52,17.38,42.86,37.42,60.59,59.67,50.44,63.33,77.69,143.06,76.73,224.48-.64,58.23-15.88,115.89-44.08,166.72-8.75,15.79-18.69,30.89-29.73,45.17-40.54,52.44-94.63,92.26-156.4,115.16-39.55,14.7-81.41,22.21-123.6,22.19h0ZM353.85,34.97c-36.87-.02-73.46,6.34-108.15,18.81-55.02,19.74-103.52,54.32-140.26,100.02-1.36,1.68-2.65,3.32-3.95,5-43.4,56.12-66.4,123.23-66.52,194.05-.09,55.74,14.4,110.69,41.91,158.92,20.8,36.42,48.35,68.04,81.88,93.96,24.98,19.32,52.47,34.75,81.71,45.87,36.1,13.72,74.09,20.68,112.91,20.68h0c38.04.03,75.78-6.75,111.43-20,55.64-20.63,104.37-56.51,140.91-103.77,9.96-12.87,18.92-26.49,26.81-40.73,25.4-45.79,39.12-97.72,39.7-150.18.87-73.4-23.68-145.25-69.12-202.31-15.98-20.05-34.31-38.11-54.61-53.78-23.84-18.43-49.99-33.33-77.72-44.28-37.29-14.77-76.62-22.26-116.92-22.26h0Z"/>
  <path d="M352.41,516.53c-3.73,0-7.35-1.19-10.35-3.4l-143.29-105.35c-6.07-4.47-8.6-12.32-6.27-19.49l55.45-170.53c2.34-7.2,9.05-12.08,16.63-12.08h179.23c7.57,0,14.28,4.87,16.63,12.08l55.44,170.53c2.35,7.24-.25,15.17-6.43,19.61l-146.83,105.35c-2.97,2.13-6.54,3.28-10.19,3.28h0ZM229.66,387.1l122.88,90.35,126.13-90.49-47.57-146.3h-153.83l-47.62,146.45h0ZM234.25,685.42c-9.66,0-17.49-7.82-17.5-17.48,0-5.72,2.75-10.81,7-14l117.63-95.72c7.49-6.09,18.5-4.96,24.6,2.53,6.09,7.49,4.96,18.5-2.53,24.6l-118.16,96.16c-3.12,2.54-7.02,3.92-11.04,3.92h0ZM68,535.14c-9.66,0-17.48-7.84-17.47-17.49,0-2.64.6-5.25,1.76-7.62l45.81-94.43-88.8-47.35c-8.52-4.54-11.74-15.13-7.2-23.65,0,0,0,0,0,0,4.54-8.52,15.13-11.74,23.65-7.2,0,0,0,0,0,0l103.65,55.27c8.29,4.42,11.6,14.6,7.51,23.06l-53.15,109.57c-2.92,6.03-9.04,9.87-15.74,9.86h0ZM223.38,186.03c-1.12,0-2.24-.11-3.35-.32l-131.57-25.7c-9.49-1.79-15.73-10.93-13.94-20.42,1.79-9.49,10.93-15.73,20.42-13.94.08.01.15.03.23.04l113.2,22.11,14.09-112.65c1.3-9.57,10.11-16.27,19.68-14.97,9.42,1.28,16.09,9.86,15.01,19.3l-16.41,131.22c-1.09,8.75-8.53,15.31-17.35,15.32h0ZM647.81,533.77c-6.91,0-13.16-4.07-15.96-10.39l-52.23-107.66c-4.1-8.45-.79-18.64,7.51-23.06l94.36-50.3c8.5-4.58,19.1-1.39,23.68,7.11,4.58,8.5,1.39,19.1-7.11,23.68-.04.02-.08.04-.12.06l-79.51,42.38,45.13,93c.33.68.62,1.39.86,2.1,3.05,9.16-1.89,19.1-11.04,22.15-1.79.6-3.66.9-5.55.91h0ZM493.12,186.03c-8.82,0-16.25-6.57-17.35-15.32l-15.94-127.58c-1.2-9.59,5.6-18.33,15.19-19.53.72-.09,1.44-.13,2.16-.14,8.96,0,16.48,6.77,17.39,15.69l13.57,108.63,105.25-20.56c9.49-1.79,18.63,4.45,20.42,13.94,1.77,9.4-4.34,18.48-13.72,20.38l-123.63,24.15c-1.11.22-2.24.32-3.35.32h0Z"/>
  <path d="M352.41,589.26c-9.66,0-17.48-7.83-17.48-17.48v-72.73c0-9.66,7.81-17.49,17.47-17.5s17.49,7.81,17.5,17.47v72.76c0,9.65-7.82,17.48-17.48,17.48h0,0ZM595.37,425.57c-.86,0-1.73-.06-2.61-.19l-96.11-14.39c-9.55-1.43-16.13-10.33-14.7-19.88s10.33-16.13,19.88-14.7l96.11,14.39c9.55,1.42,16.14,10.31,14.72,19.86-1.27,8.57-8.63,14.91-17.29,14.91ZM443.79,240.65c-9.66,0-17.48-7.83-17.48-17.49,0-4.33,1.61-8.5,4.51-11.71l49.33-54.62c6.47-7.17,17.53-7.73,24.69-1.26,7.17,6.47,7.73,17.53,1.26,24.69l-49.33,54.62c-3.31,3.68-8.03,5.77-12.98,5.77ZM264.58,240.65c-5.49,0-10.67-2.57-13.97-6.96l-41.19-54.62c-5.81-7.71-4.28-18.67,3.43-24.49,7.71-5.81,18.67-4.28,24.49,3.43l41.19,54.62c5.81,7.71,4.28,18.67-3.43,24.49-3.03,2.29-6.72,3.52-10.52,3.52h0ZM121.14,425.57c-9.66,0-17.48-7.84-17.48-17.49,0-8.57,6.22-15.87,14.67-17.25l87.96-14.39c9.54-1.49,18.48,5.04,19.97,14.58,1.47,9.44-4.91,18.32-14.32,19.93l-87.96,14.39c-.94.15-1.89.23-2.84.23Z"/>
  <path d="M470.61,685.42c-4.02,0-7.91-1.38-11.02-3.92l-117.49-95.56c-7.39-6.21-8.35-17.24-2.14-24.64,6.07-7.22,16.78-8.33,24.2-2.49l117.49,95.56c7.49,6.1,8.62,17.11,2.52,24.6-3.32,4.08-8.3,6.45-13.56,6.45Z"/>
</svg>
